<svg width="78" height="78" viewBox="0 0 78 78" fill="none" xmlns="http://www.w3.org/2000/svg">
<path d="M16.053 36.3928L2.00006 75.963L41.5703 61.947M9.39636 5.69815H9.43335M75.9631 24.1889H76.0001M50.076 2H50.113M75.9631 68.5667H76.0001M75.9631 2L67.6792 4.77361C65.3212 5.55906 63.3092 7.1391 61.9871 9.24365C60.665 11.3482 60.1149 13.8466 60.4308 16.3118C60.8007 19.4923 58.3229 22.3398 55.0685 22.3398H53.6632C50.4828 22.3398 47.7462 24.5587 47.1545 27.6652L46.3779 31.5852M75.9631 42.6797L72.9306 41.4593C69.7502 40.2019 66.2 42.1989 65.6083 45.5642C65.2015 48.1529 62.9456 50.076 60.3199 50.076H57.4723M35.2834 2L36.5038 5.03248C37.7612 8.21289 35.7642 11.7631 32.3989 12.3548C29.8102 12.7246 27.8871 15.0175 27.8871 17.6432V20.4908" stroke="#1DC31D" stroke-width="4" stroke-linecap="round" stroke-linejoin="round"/>
<path d="M35.2835 42.68C42.4209 49.8175 45.7492 58.1013 42.6798 61.1708C39.6103 64.2403 31.3264 60.9119 24.189 53.7745C17.0516 46.6371 13.7232 38.3532 16.7927 35.2837C19.8622 32.2143 28.146 35.5426 35.2835 42.68Z" stroke="#1DC31D" stroke-width="4" stroke-linecap="round" stroke-linejoin="round"/>
</svg>
