<svg width="21" height="16" viewBox="0 0 21 16" fill="none" xmlns="http://www.w3.org/2000/svg">
<path d="M0.70928 7.99842C0.63011 7.77388 0.63011 7.52689 0.70928 7.30236C1.48036 5.33404 2.78921 3.65108 4.46992 2.46683C6.15063 1.28259 8.1275 0.650391 10.1499 0.650391C12.1723 0.650391 14.1492 1.28259 15.8299 2.46683C17.5106 3.65108 18.8194 5.33404 19.5905 7.30236C19.6697 7.52689 19.6697 7.77388 19.5905 7.99842C18.8194 9.96674 17.5106 11.6497 15.8299 12.8339C14.1492 14.0182 12.1723 14.6504 10.1499 14.6504C8.1275 14.6504 6.15063 14.0182 4.46992 12.8339C2.78921 11.6497 1.48036 9.96674 0.70928 7.99842Z" stroke="#ADADAD" stroke-width="1.3" stroke-linecap="round" stroke-linejoin="round"/>
<path d="M10.1501 10.6509C11.7241 10.6509 13 9.30766 13 7.65065C13 5.99365 11.7241 4.65039 10.1501 4.65039C8.57622 4.65039 7.30029 5.99365 7.30029 7.65065C7.30029 9.30766 8.57622 10.6509 10.1501 10.6509Z" stroke="#ADADAD" stroke-width="1.3" stroke-linecap="round" stroke-linejoin="round"/>
</svg>
