<svg width="45" height="45" viewBox="0 0 45 45" fill="none" xmlns="http://www.w3.org/2000/svg">
<mask id="path-1-outside-1_13354_5906" maskUnits="userSpaceOnUse" x="-0.499451" y="-0.5" width="46" height="46" fill="black">
<rect fill="white" x="-0.499451" y="-0.5" width="46" height="46"/>
<path fill-rule="evenodd" clip-rule="evenodd" d="M21.5215 1.0751C21.8815 0.308299 22.9721 0.308299 23.332 1.0751L29.3074 13.8057C29.4491 14.1076 29.732 14.319 30.0617 14.3693L43.503 16.423C44.3076 16.5459 44.6361 17.5273 44.0677 18.1099L34.2792 28.1423C34.0576 28.3695 33.9569 28.6884 34.008 29.0016L36.31 43.114C36.4444 43.9379 35.5699 44.5541 34.8393 44.1502L22.9106 37.5562C22.6095 37.3898 22.2441 37.3898 21.943 37.5562L10.0143 44.1502C9.28371 44.5541 8.40914 43.9379 8.54353 43.114L10.8455 29.0016C10.8966 28.6884 10.796 28.3695 10.5743 28.1423L0.785861 18.1099C0.217449 17.5273 0.545986 16.5459 1.35058 16.423L14.7919 14.3693C15.1216 14.319 15.4044 14.1076 15.5461 13.8057L21.5215 1.0751Z"/>
</mask>
<path fill-rule="evenodd" clip-rule="evenodd" d="M21.5215 1.0751C21.8815 0.308299 22.9721 0.308299 23.332 1.0751L29.3074 13.8057C29.4491 14.1076 29.732 14.319 30.0617 14.3693L43.503 16.423C44.3076 16.5459 44.6361 17.5273 44.0677 18.1099L34.2792 28.1423C34.0576 28.3695 33.9569 28.6884 34.008 29.0016L36.31 43.114C36.4444 43.9379 35.5699 44.5541 34.8393 44.1502L22.9106 37.5562C22.6095 37.3898 22.2441 37.3898 21.943 37.5562L10.0143 44.1502C9.28371 44.5541 8.40914 43.9379 8.54353 43.114L10.8455 29.0016C10.8966 28.6884 10.796 28.3695 10.5743 28.1423L0.785861 18.1099C0.217449 17.5273 0.545986 16.5459 1.35058 16.423L14.7919 14.3693C15.1216 14.319 15.4044 14.1076 15.5461 13.8057L21.5215 1.0751Z" fill="#F5F5F5"/>
<path d="M14.7919 14.3693L14.8674 14.8636L14.7919 14.3693ZM1.35058 16.423L1.27507 15.9287L1.35058 16.423ZM10.5743 28.1423L10.9322 27.7931L10.5743 28.1423ZM10.0143 44.1502L9.77238 43.7126L10.0143 44.1502ZM8.54353 43.114L8.05006 43.0335L8.54353 43.114ZM22.9106 37.5562L23.1525 37.1186L22.9106 37.5562ZM21.943 37.5562L21.7011 37.1186L21.943 37.5562ZM36.31 43.114L35.8166 43.1945L36.31 43.114ZM34.8393 44.1502L34.5974 44.5878L34.8393 44.1502ZM34.2792 28.1423L34.6371 28.4915L34.2792 28.1423ZM34.008 29.0016L34.5015 28.9211L34.008 29.0016ZM43.503 16.423L43.4275 16.9173L43.503 16.423ZM44.0677 18.1099L43.7098 17.7607L44.0677 18.1099ZM30.0617 14.3693L29.9861 14.8636L30.0617 14.3693ZM21.5215 1.0751L21.0689 0.862654L21.5215 1.0751ZM23.332 1.0751L22.8794 1.28755L28.8548 14.0182L29.3074 13.8057L29.7601 13.5933L23.7846 0.862654L23.332 1.0751ZM30.0617 14.3693L29.9861 14.8636L43.4275 16.9173L43.503 16.423L43.5785 15.9287L30.1372 13.8751L30.0617 14.3693ZM44.0677 18.1099L43.7098 17.7607L33.9214 27.7931L34.2792 28.1423L34.6371 28.4915L44.4256 18.459L44.0677 18.1099ZM34.008 29.0016L33.5146 29.0821L35.8166 43.1945L36.31 43.114L36.8035 43.0335L34.5015 28.9211L34.008 29.0016ZM34.8393 44.1502L35.0812 43.7126L23.1525 37.1186L22.9106 37.5562L22.6687 37.9938L34.5974 44.5878L34.8393 44.1502ZM21.943 37.5562L21.7011 37.1186L9.77238 43.7126L10.0143 44.1502L10.2562 44.5878L22.1849 37.9938L21.943 37.5562ZM8.54353 43.114L9.03701 43.1945L11.339 29.0821L10.8455 29.0016L10.3521 28.9211L8.05006 43.0335L8.54353 43.114ZM10.5743 28.1423L10.9322 27.7931L1.14374 17.7607L0.785861 18.1099L0.427983 18.459L10.2165 28.4915L10.5743 28.1423ZM1.35058 16.423L1.4261 16.9173L14.8674 14.8636L14.7919 14.3693L14.7164 13.8751L1.27507 15.9287L1.35058 16.423ZM15.5461 13.8057L15.9987 14.0182L21.9742 1.28755L21.5215 1.0751L21.0689 0.862654L15.0935 13.5933L15.5461 13.8057ZM14.7919 14.3693L14.8674 14.8636C15.3619 14.7881 15.7862 14.471 15.9987 14.0182L15.5461 13.8057L15.0935 13.5933C15.0226 13.7442 14.8812 13.8499 14.7164 13.8751L14.7919 14.3693ZM0.785861 18.1099L1.14374 17.7607C0.859533 17.4694 1.0238 16.9787 1.4261 16.9173L1.35058 16.423L1.27507 15.9287C0.0681712 16.1131 -0.424635 17.5852 0.427983 18.459L0.785861 18.1099ZM10.8455 29.0016L11.339 29.0821C11.4157 28.6123 11.2647 28.1339 10.9322 27.7931L10.5743 28.1423L10.2165 28.4915C10.3273 28.6051 10.3776 28.7645 10.3521 28.9211L10.8455 29.0016ZM10.0143 44.1502L9.77238 43.7126C9.4071 43.9145 8.96982 43.6065 9.03701 43.1945L8.54353 43.114L8.05006 43.0335C7.84847 44.2693 9.16032 45.1936 10.2562 44.5878L10.0143 44.1502ZM22.9106 37.5562L23.1525 37.1186C22.7009 36.869 22.1527 36.869 21.7011 37.1186L21.943 37.5562L22.1849 37.9938C22.3354 37.9106 22.5181 37.9106 22.6687 37.9938L22.9106 37.5562ZM36.31 43.114L35.8166 43.1945C35.8838 43.6065 35.4465 43.9145 35.0812 43.7126L34.8393 44.1502L34.5974 44.5878C35.6932 45.1936 37.0051 44.2693 36.8035 43.0335L36.31 43.114ZM34.2792 28.1423L33.9214 27.7931C33.5889 28.1339 33.4379 28.6123 33.5146 29.0821L34.008 29.0016L34.5015 28.9211C34.476 28.7645 34.5263 28.6051 34.6371 28.4915L34.2792 28.1423ZM43.503 16.423L43.4275 16.9173C43.8298 16.9787 43.994 17.4694 43.7098 17.7607L44.0677 18.1099L44.4256 18.459C45.2782 17.5852 44.7854 16.1131 43.5785 15.9287L43.503 16.423ZM29.3074 13.8057L28.8548 14.0182C29.0674 14.471 29.4917 14.7881 29.9861 14.8636L30.0617 14.3693L30.1372 13.8751C29.9723 13.8499 29.8309 13.7442 29.7601 13.5933L29.3074 13.8057ZM23.332 1.0751L23.7846 0.862654C23.2448 -0.287552 21.6088 -0.287551 21.0689 0.862654L21.5215 1.0751L21.9742 1.28755C22.1541 0.904149 22.6994 0.90415 22.8794 1.28755L23.332 1.0751Z" fill="#D1D1D1" mask="url(#path-1-outside-1_13354_5906)"/>
</svg>
