<svg width="12" height="6" viewBox="0 0 12 6" fill="none" xmlns="http://www.w3.org/2000/svg">
<path d="M1.00216 0.152778C0.945457 0.104075 0.878752 0.0660009 0.805855 0.040728C0.732959 0.0154557 0.6553 0.00347991 0.577311 0.00548502C0.499322 0.00749013 0.422532 0.0234365 0.351324 0.0524144C0.280117 0.0813918 0.215886 0.122833 0.1623 0.174371C0.108714 0.225909 0.0668213 0.286536 0.0390146 0.352789C0.0112079 0.419042 -0.0019686 0.489624 0.000237586 0.560504C0.00244377 0.631386 0.0199893 0.701178 0.0518725 0.765896C0.0837557 0.830615 0.129352 0.888991 0.186058 0.937694L5.53172 5.52627C5.642 5.62103 5.78801 5.67383 5.93978 5.67383C6.09154 5.67383 6.23755 5.62103 6.34783 5.52627L11.6941 0.937693C11.752 0.889312 11.7988 0.830948 11.8318 0.765992C11.8647 0.701036 11.8831 0.630782 11.8859 0.559311C11.8886 0.48784 11.8758 0.416577 11.848 0.349661C11.8203 0.282745 11.7781 0.22151 11.7241 0.169513C11.6701 0.117516 11.6052 0.0757935 11.5333 0.0467689C11.4614 0.0177443 11.3839 0.00199625 11.3052 0.000438903C11.2265 -0.00111844 11.1483 0.0115468 11.0751 0.0376985C11.0018 0.0638502 10.935 0.102967 10.8786 0.152777L5.93978 4.39154L1.00216 0.152778Z" fill="#ADADAD"/>
</svg>
