<svg width="11" height="9" viewBox="0 0 11 9" fill="none" xmlns="http://www.w3.org/2000/svg">
<path d="M10.8711 0.782801L3.83137 8.11559C3.79051 8.1582 3.74199 8.192 3.68857 8.21507C3.63516 8.23813 3.57791 8.25 3.52009 8.25C3.46227 8.25 3.40501 8.23813 3.3516 8.21507C3.29819 8.192 3.24966 8.1582 3.2088 8.11559L0.128939 4.90749C0.0463807 4.8215 0 4.70486 0 4.58325C0 4.46163 0.0463807 4.345 0.128939 4.259C0.211497 4.173 0.32347 4.12469 0.440225 4.12469C0.55698 4.12469 0.668953 4.173 0.751511 4.259L3.52009 7.14342L10.2485 0.134307C10.331 0.0483115 10.443 -9.0611e-10 10.5598 0C10.6765 9.06111e-10 10.7885 0.0483115 10.8711 0.134307C10.9536 0.220303 11 0.336938 11 0.458554C11 0.58017 10.9536 0.696805 10.8711 0.782801Z" fill="#ADADAD"/>
</svg>
