<svg width="21" height="21" viewBox="0 0 21 21" fill="none" xmlns="http://www.w3.org/2000/svg">
<path d="M20.4788 12.4063C20.3746 12.3018 20.2439 12.2278 20.1008 12.192C19.9576 12.1562 19.8075 12.1601 19.6663 12.2032C18.1171 12.6715 16.4698 12.7108 14.9 12.3168C13.3301 11.9228 11.8966 11.1103 10.7522 9.9658C9.60769 8.82133 8.79516 7.38782 8.40116 5.818C8.00715 4.24817 8.04642 2.60087 8.51478 1.0516C8.55825 0.910434 8.56241 0.760084 8.52682 0.616726C8.49123 0.473367 8.41723 0.342423 8.31278 0.237976C8.20834 0.133529 8.07739 0.0595301 7.93403 0.0239388C7.79068 -0.0116525 7.64033 -0.00749003 7.49916 0.0359784C5.35723 0.692118 3.47681 2.0071 2.12549 3.79379C0.943717 5.36279 0.222868 7.23023 0.0439258 9.18633C-0.135017 11.1424 0.235036 13.1097 1.11251 14.867C1.98998 16.6244 3.34011 18.1023 5.01121 19.1346C6.68231 20.167 8.60818 20.7129 10.5724 20.7111C12.864 20.7181 15.0947 19.9731 16.9221 18.5904C18.7088 17.2391 20.0238 15.3587 20.6799 13.2168C20.7229 13.0761 20.7269 12.9264 20.6915 12.7837C20.6561 12.641 20.5826 12.5105 20.4788 12.4063ZM15.9451 17.2925C14.2242 18.5887 12.0929 19.2196 9.94371 19.0691C7.7945 18.9186 5.77199 17.9968 4.24849 16.4735C2.72498 14.9501 1.80304 12.9276 1.65238 10.7784C1.50171 8.62924 2.13247 6.49795 3.42853 4.77692C4.27293 3.66182 5.36458 2.7579 6.61759 2.13629C6.54621 2.63722 6.51024 3.14256 6.50994 3.64856C6.5129 6.449 7.62668 9.13389 9.60689 11.1141C11.5871 13.0943 14.272 14.2081 17.0724 14.2111C17.5794 14.2109 18.0858 14.1749 18.5877 14.1034C17.9656 15.3566 17.0609 16.4483 15.9451 17.2925Z" fill="#525252"/>
</svg>
