<svg width="25" height="25" viewBox="0 0 25 25" fill="none" xmlns="http://www.w3.org/2000/svg">
<path d="M11.375 3.25V0.8125C11.375 0.597012 11.4606 0.390349 11.613 0.237976C11.7653 0.0856024 11.972 0 12.1875 0C12.403 0 12.6097 0.0856024 12.762 0.237976C12.9144 0.390349 13 0.597012 13 0.8125V3.25C13 3.46549 12.9144 3.67215 12.762 3.82452C12.6097 3.9769 12.403 4.0625 12.1875 4.0625C11.972 4.0625 11.7653 3.9769 11.613 3.82452C11.4606 3.67215 11.375 3.46549 11.375 3.25ZM18.6875 12.1875C18.6875 13.4731 18.3063 14.7298 17.5921 15.7987C16.8778 16.8676 15.8627 17.7007 14.6749 18.1927C13.4872 18.6847 12.1803 18.8134 10.9194 18.5626C9.65854 18.3118 8.50035 17.6927 7.59131 16.7837C6.68226 15.8747 6.0632 14.7165 5.8124 13.4556C5.56159 12.1947 5.69031 10.8878 6.18228 9.70006C6.67425 8.51234 7.50737 7.49718 8.57629 6.78295C9.64521 6.06872 10.9019 5.6875 12.1875 5.6875C13.9108 5.68938 15.563 6.37481 16.7816 7.59338C18.0002 8.81196 18.6856 10.4642 18.6875 12.1875ZM17.0625 12.1875C17.0625 11.2233 16.7766 10.2808 16.2409 9.47909C15.7052 8.67741 14.9439 8.05256 14.0531 7.68359C13.1623 7.31461 12.1821 7.21807 11.2364 7.40617C10.2908 7.59427 9.42214 8.05857 8.74035 8.74035C8.05857 9.42214 7.59427 10.2908 7.40617 11.2364C7.21807 12.1821 7.31461 13.1623 7.68359 14.0531C8.05256 14.9439 8.67741 15.7052 9.47909 16.2409C10.2808 16.7766 11.2233 17.0625 12.1875 17.0625C13.48 17.0612 14.7192 16.5471 15.6332 15.6332C16.5471 14.7192 17.0612 13.48 17.0625 12.1875ZM5.11266 6.26234C5.26511 6.4148 5.47189 6.50045 5.6875 6.50045C5.90311 6.50045 6.10989 6.4148 6.26234 6.26234C6.4148 6.10989 6.50045 5.90311 6.50045 5.6875C6.50045 5.47189 6.4148 5.26511 6.26234 5.11266L4.63734 3.48766C4.48489 3.3352 4.27811 3.24955 4.0625 3.24955C3.84689 3.24955 3.64011 3.3352 3.48766 3.48766C3.3352 3.64011 3.24955 3.84689 3.24955 4.0625C3.24955 4.27811 3.3352 4.48489 3.48766 4.63734L5.11266 6.26234ZM5.11266 18.1127L3.48766 19.7377C3.3352 19.8901 3.24955 20.0969 3.24955 20.3125C3.24955 20.5281 3.3352 20.7349 3.48766 20.8873C3.64011 21.0398 3.84689 21.1255 4.0625 21.1255C4.27811 21.1255 4.48489 21.0398 4.63734 20.8873L6.26234 19.2623C6.33783 19.1869 6.39772 19.0972 6.43857 18.9986C6.47942 18.9 6.50045 18.7943 6.50045 18.6875C6.50045 18.5807 6.47942 18.475 6.43857 18.3764C6.39772 18.2778 6.33783 18.1881 6.26234 18.1127C6.18685 18.0372 6.09724 17.9773 5.9986 17.9364C5.89997 17.8956 5.79426 17.8745 5.6875 17.8745C5.58074 17.8745 5.47503 17.8956 5.3764 17.9364C5.27776 17.9773 5.18815 18.0372 5.11266 18.1127ZM18.6875 6.5C18.7942 6.50008 18.8999 6.47914 18.9986 6.43836C19.0972 6.39758 19.1868 6.33777 19.2623 6.26234L20.8873 4.63734C21.0398 4.48489 21.1255 4.27811 21.1255 4.0625C21.1255 3.84689 21.0398 3.64011 20.8873 3.48766C20.7349 3.3352 20.5281 3.24955 20.3125 3.24955C20.0969 3.24955 19.8901 3.3352 19.7377 3.48766L18.1127 5.11266C17.9989 5.22629 17.9214 5.37112 17.89 5.52881C17.8586 5.68651 17.8747 5.84997 17.9362 5.99852C17.9978 6.14706 18.102 6.274 18.2358 6.36327C18.3695 6.45254 18.5267 6.50013 18.6875 6.5ZM19.2623 18.1127C19.1099 17.9602 18.9031 17.8745 18.6875 17.8745C18.4719 17.8745 18.2651 17.9602 18.1127 18.1127C17.9602 18.2651 17.8745 18.4719 17.8745 18.6875C17.8745 18.9031 17.9602 19.1099 18.1127 19.2623L19.7377 20.8873C19.8131 20.9628 19.9028 21.0227 20.0014 21.0636C20.1 21.1044 20.2057 21.1255 20.3125 21.1255C20.4193 21.1255 20.525 21.1044 20.6236 21.0636C20.7222 21.0227 20.8119 20.9628 20.8873 20.8873C20.9628 20.8119 21.0227 20.7222 21.0636 20.6236C21.1044 20.525 21.1255 20.4193 21.1255 20.3125C21.1255 20.2057 21.1044 20.1 21.0636 20.0014C21.0227 19.9028 20.9628 19.8131 20.8873 19.7377L19.2623 18.1127ZM4.0625 12.1875C4.0625 11.972 3.9769 11.7653 3.82452 11.613C3.67215 11.4606 3.46549 11.375 3.25 11.375H0.8125C0.597012 11.375 0.390349 11.4606 0.237976 11.613C0.0856024 11.7653 0 11.972 0 12.1875C0 12.403 0.0856024 12.6097 0.237976 12.762C0.390349 12.9144 0.597012 13 0.8125 13H3.25C3.46549 13 3.67215 12.9144 3.82452 12.762C3.9769 12.6097 4.0625 12.403 4.0625 12.1875ZM12.1875 20.3125C11.972 20.3125 11.7653 20.3981 11.613 20.5505C11.4606 20.7028 11.375 20.9095 11.375 21.125V23.5625C11.375 23.778 11.4606 23.9847 11.613 24.137C11.7653 24.2894 11.972 24.375 12.1875 24.375C12.403 24.375 12.6097 24.2894 12.762 24.137C12.9144 23.9847 13 23.778 13 23.5625V21.125C13 20.9095 12.9144 20.7028 12.762 20.5505C12.6097 20.3981 12.403 20.3125 12.1875 20.3125ZM23.5625 11.375H21.125C20.9095 11.375 20.7028 11.4606 20.5505 11.613C20.3981 11.7653 20.3125 11.972 20.3125 12.1875C20.3125 12.403 20.3981 12.6097 20.5505 12.762C20.7028 12.9144 20.9095 13 21.125 13H23.5625C23.778 13 23.9847 12.9144 24.137 12.762C24.2894 12.6097 24.375 12.403 24.375 12.1875C24.375 11.972 24.2894 11.7653 24.137 11.613C23.9847 11.4606 23.778 11.375 23.5625 11.375Z" fill="#525252"/>
</svg>
