<svg width="23" height="23" viewBox="0 0 23 23" fill="none" xmlns="http://www.w3.org/2000/svg">
<path d="M16.1135 6.64175C15.8433 5.18647 15.1807 3.83266 14.1972 2.72647C13.2137 1.62029 11.9468 0.803769 10.5331 0.365073C9.1195 -0.0736231 7.61288 -0.117826 6.17595 0.237236C4.73902 0.592298 3.42638 1.33314 2.37976 2.37976C1.33314 3.42638 0.592298 4.73902 0.237236 6.17595C-0.117826 7.61288 -0.0736231 9.1195 0.365073 10.5331C0.803769 11.9468 1.62029 13.2137 2.72647 14.1972C3.83266 15.1807 5.18647 15.8433 6.64175 16.1135C6.91195 17.5687 7.57456 18.9226 8.55802 20.0287C9.54148 21.1349 10.8084 21.9514 12.2221 22.3901C13.6357 22.8288 15.1423 22.873 16.5793 22.518C18.0162 22.1629 19.3288 21.4221 20.3755 20.3755C21.4221 19.3288 22.1629 18.0162 22.518 16.5793C22.873 15.1423 22.8288 13.6357 22.3901 12.2221C21.9514 10.8084 21.1349 9.54148 20.0287 8.55802C18.9226 7.57456 17.5687 6.91195 16.1135 6.64175ZM8.60394 12.1901L10.5651 14.1513C9.79116 14.4665 8.9633 14.6283 8.12761 14.6276C8.12691 13.7919 8.28868 12.9641 8.60394 12.1901ZM12.0317 13.3205L9.43472 10.7235C9.80232 10.2361 10.2361 9.80232 10.7235 9.43472L13.3205 12.0317C12.9529 12.5191 12.5191 12.9529 12.0317 13.3205ZM14.1513 10.5651L12.1901 8.60394C12.9641 8.28868 13.7919 8.12691 14.6276 8.12761C14.6283 8.9633 14.4665 9.79116 14.1513 10.5651ZM1.62761 8.12761C1.62449 6.54331 2.2001 5.01242 3.24626 3.82266C4.29242 2.63289 5.7371 1.86617 7.30877 1.66659C8.88045 1.46702 10.4709 1.84832 11.7812 2.73885C13.0916 3.62938 14.0315 4.96782 14.4245 6.50261C12.3412 6.55735 10.3584 7.40971 8.88531 8.88378C7.41218 10.3579 6.5611 12.3412 6.50769 14.4245C5.11189 14.0633 3.87544 13.2491 2.99225 12.1095C2.10906 10.9699 1.62909 9.56938 1.62761 8.12761ZM14.6276 21.1276C13.1865 21.1264 11.7865 20.6472 10.647 19.765C9.5075 18.8828 8.69286 17.6475 8.33073 16.2526C10.4149 16.1991 12.3989 15.3474 13.8731 13.8731C15.3474 12.3989 16.1991 10.4149 16.2526 8.33073C17.7874 8.72369 19.1258 9.66366 20.0164 10.974C20.9069 12.2843 21.2882 13.8748 21.0886 15.4464C20.889 17.0181 20.1223 18.4628 18.9326 19.509C17.7428 20.5551 16.2119 21.1307 14.6276 21.1276Z" fill="#525252"/>
</svg>
