<svg width="26" height="17" viewBox="0 0 26 17" fill="none" xmlns="http://www.w3.org/2000/svg">
<path d="M11.6881 11.1662C12.777 10.4413 13.6038 9.3851 14.046 8.15393C14.4883 6.92276 14.5227 5.58194 14.144 4.32975C13.7653 3.07756 12.9937 1.98047 11.9432 1.20074C10.8928 0.420997 9.61932 0 8.31112 0C7.00291 0 5.72944 0.420997 4.67901 1.20074C3.62858 1.98047 2.85697 3.07756 2.47827 4.32975C2.09958 5.58194 2.13391 6.92276 2.57618 8.15393C3.01846 9.3851 3.84521 10.4413 4.93416 11.1662C2.96435 11.8922 1.28208 13.2357 0.138382 14.9961C0.0782727 15.0855 0.0365209 15.1859 0.0155533 15.2915C-0.00541438 15.3971 -0.00517962 15.5058 0.0162439 15.6114C0.0376674 15.7169 0.0798523 15.8171 0.140346 15.9062C0.200841 15.9953 0.278438 16.0714 0.368626 16.1302C0.458815 16.1891 0.559797 16.2294 0.665702 16.2488C0.771608 16.2683 0.880324 16.2665 0.985531 16.2436C1.09074 16.2206 1.19034 16.177 1.27854 16.1153C1.36674 16.0535 1.44179 15.9748 1.49932 15.8838C2.23706 14.7491 3.24656 13.8167 4.43614 13.1712C5.62572 12.5258 6.9577 12.1877 8.31112 12.1877C9.66453 12.1877 10.9965 12.5258 12.1861 13.1712C13.3757 13.8167 14.3852 14.7491 15.1229 15.8838C15.2421 16.0609 15.4262 16.184 15.6354 16.2265C15.8446 16.269 16.0621 16.2274 16.2409 16.1108C16.4197 15.9941 16.5454 15.8118 16.5909 15.6033C16.6364 15.3947 16.5979 15.1766 16.4839 14.9961C15.3401 13.2357 13.6579 11.8922 11.6881 11.1662ZM3.84237 6.09622C3.84237 5.21239 4.10445 4.3484 4.59549 3.61352C5.08652 2.87864 5.78444 2.30587 6.601 1.96764C7.41756 1.62941 8.31607 1.54091 9.18293 1.71334C10.0498 1.88577 10.846 2.31137 11.471 2.93634C12.096 3.5613 12.5216 4.35756 12.694 5.22441C12.8664 6.09126 12.7779 6.98978 12.4397 7.80634C12.1015 8.6229 11.5287 9.32082 10.7938 9.81185C10.0589 10.3029 9.19495 10.565 8.31112 10.565C7.12634 10.5636 5.99048 10.0924 5.15272 9.25462C4.31495 8.41686 3.84371 7.281 3.84237 6.09622ZM25.1847 16.1204C25.0042 16.2381 24.7844 16.2793 24.5736 16.2349C24.3627 16.1906 24.1781 16.0643 24.0604 15.8838C23.3236 14.7485 22.3142 13.8156 21.1244 13.1704C19.9345 12.5252 18.6021 12.1882 17.2486 12.19C17.0331 12.19 16.8265 12.1044 16.6741 11.952C16.5217 11.7996 16.4361 11.593 16.4361 11.3775C16.4361 11.162 16.5217 10.9553 16.6741 10.8029C16.8265 10.6506 17.0331 10.565 17.2486 10.565C17.9067 10.5644 18.5565 10.4184 19.1517 10.1375C19.7468 9.85663 20.2726 9.44777 20.6914 8.94015C21.1102 8.43252 21.4117 7.83866 21.5744 7.20099C21.7371 6.56333 21.757 5.8976 21.6326 5.25137C21.5081 4.60515 21.2425 3.99438 20.8547 3.4627C20.4669 2.93103 19.9664 2.49157 19.3891 2.17574C18.8117 1.85991 18.1717 1.67549 17.5148 1.63566C16.8579 1.59584 16.2004 1.70159 15.5891 1.94536C15.4894 1.98845 15.3821 2.01112 15.2735 2.01204C15.165 2.01295 15.0573 1.9921 14.9569 1.95071C14.8565 1.90931 14.7655 1.84822 14.6891 1.77103C14.6127 1.69385 14.5526 1.60214 14.5123 1.50132C14.472 1.40051 14.4523 1.29263 14.4543 1.18407C14.4564 1.07551 14.4802 0.968463 14.5244 0.86926C14.5685 0.770056 14.6321 0.680706 14.7113 0.60649C14.7906 0.532273 14.8839 0.474696 14.9858 0.43716C16.3848 -0.120773 17.9408 -0.14085 19.3537 0.3808C20.7667 0.90245 21.9363 1.92887 22.6371 3.26204C23.3379 4.59521 23.5201 6.14067 23.1487 7.60028C22.7772 9.05989 21.8784 10.3302 20.6256 11.1662C22.5954 11.8922 24.2776 13.2357 25.4213 14.9961C25.539 15.1766 25.5802 15.3965 25.5358 15.6073C25.4915 15.8181 25.3652 16.0027 25.1847 16.1204Z" fill="#525252"/>
</svg>
