<svg width="22" height="20" viewBox="0 0 22 20" fill="none" xmlns="http://www.w3.org/2000/svg">
<path d="M2.4375 0.5H18.6875C19.2014 0.5 19.6943 0.704031 20.0576 1.06738C20.421 1.43073 20.625 1.92364 20.625 2.4375V13.8125C20.625 14.3264 20.421 14.8193 20.0576 15.1826C19.6943 15.546 19.2014 15.75 18.6875 15.75H10.875V18.375H13.8125C13.8954 18.375 13.9746 18.4082 14.0332 18.4668C14.0918 18.5254 14.125 18.6046 14.125 18.6875C14.125 18.7704 14.0918 18.8496 14.0332 18.9082C13.9746 18.9668 13.8954 19 13.8125 19H7.3125C7.22962 19 7.1504 18.9668 7.0918 18.9082C7.03319 18.8496 7 18.7704 7 18.6875C7 18.6046 7.03319 18.5254 7.0918 18.4668C7.1504 18.4082 7.22962 18.375 7.3125 18.375H10.25V15.75H2.4375C1.92364 15.75 1.43073 15.546 1.06738 15.1826C0.704031 14.8193 0.5 14.3264 0.5 13.8125V2.4375C0.5 1.92364 0.704031 1.43073 1.06738 1.06738C1.43073 0.704031 1.92364 0.5 2.4375 0.5ZM1.125 13.8125C1.125 14.1606 1.26362 14.4941 1.50977 14.7402C1.75591 14.9864 2.0894 15.125 2.4375 15.125H18.6875C19.0356 15.125 19.3691 14.9864 19.6152 14.7402C19.8614 14.4941 20 14.1606 20 13.8125V11.6875H1.125V13.8125ZM2.4375 1.125C2.0894 1.125 1.75591 1.26362 1.50977 1.50977C1.26362 1.75591 1.125 2.0894 1.125 2.4375V11.0625H20V2.4375C20 2.0894 19.8614 1.75591 19.6152 1.50977C19.3691 1.26363 19.0356 1.125 18.6875 1.125H2.4375Z" fill="#292929" stroke="#666666"/>
</svg>
