<svg width="16" height="10" viewBox="0 0 16 10" fill="none" xmlns="http://www.w3.org/2000/svg">
<path d="M7.19266 6.87152C7.86278 6.42539 8.37155 5.77545 8.64372 5.0178C8.91589 4.26016 8.93702 3.43504 8.70398 2.66446C8.47093 1.89388 7.99609 1.21875 7.34968 0.738914C6.70326 0.259075 5.91958 0 5.11453 0C4.30949 0 3.52581 0.259075 2.87939 0.738914C2.23297 1.21875 1.75813 1.89388 1.52509 2.66446C1.29205 3.43504 1.31317 4.26016 1.58534 5.0178C1.85752 5.77545 2.36628 6.42539 3.03641 6.87152C1.82422 7.31829 0.788974 8.14504 0.085158 9.2284C0.0481678 9.28337 0.0224744 9.34516 0.00957124 9.41015C-0.00333193 9.47515 -0.00318746 9.54205 0.00999624 9.60699C0.0231799 9.67193 0.0491399 9.7336 0.0863671 9.78842C0.123594 9.84324 0.171346 9.89011 0.226847 9.92631C0.282348 9.96251 0.344491 9.98731 0.409663 9.99928C0.474835 10.0113 0.541738 10.0102 0.60648 9.99604C0.671223 9.98193 0.732516 9.95509 0.786794 9.91709C0.841073 9.87908 0.887256 9.83066 0.922658 9.77465C1.37665 9.07639 1.99788 8.5026 2.72993 8.10538C3.46198 7.70817 4.28166 7.50012 5.11453 7.50012C5.94741 7.50012 6.76709 7.70817 7.49914 8.10538C8.23118 8.5026 8.85242 9.07639 9.30641 9.77465C9.37974 9.88364 9.49303 9.9594 9.62177 9.98553C9.75051 10.0117 9.88437 9.98609 9.9944 9.91432C10.1044 9.84255 10.1818 9.73037 10.2098 9.60201C10.2378 9.47365 10.2141 9.33945 10.1439 9.2284C9.44009 8.14504 8.40485 7.31829 7.19266 6.87152ZM2.36453 3.75152C2.36453 3.20762 2.52582 2.67594 2.82799 2.2237C3.13017 1.77147 3.55966 1.41899 4.06215 1.21085C4.56465 1.00271 5.11758 0.948253 5.65103 1.05436C6.18448 1.16047 6.67448 1.42238 7.05908 1.80698C7.44367 2.19157 7.70558 2.68158 7.81169 3.21502C7.9178 3.74847 7.86334 4.3014 7.6552 4.8039C7.44706 5.3064 7.09459 5.73589 6.64235 6.03806C6.19012 6.34024 5.65843 6.50152 5.11453 6.50152C4.38544 6.50069 3.68645 6.2107 3.1709 5.69515C2.65536 5.17961 2.36536 4.48061 2.36453 3.75152ZM15.4983 9.92027C15.3872 9.99269 15.2519 10.018 15.1222 9.99073C14.9924 9.96342 14.8789 9.8857 14.8064 9.77465C14.353 9.07597 13.7318 8.50193 12.9996 8.10488C12.2674 7.70783 11.4475 7.50041 10.6145 7.50152C10.4819 7.50152 10.3547 7.44884 10.261 7.35508C10.1672 7.26131 10.1145 7.13413 10.1145 7.00152C10.1145 6.86891 10.1672 6.74174 10.261 6.64797C10.3547 6.5542 10.4819 6.50152 10.6145 6.50152C11.0195 6.50114 11.4194 6.41132 11.7857 6.23847C12.1519 6.06562 12.4754 5.81402 12.7332 5.50163C12.9909 5.18925 13.1765 4.82379 13.2766 4.43138C13.3767 4.03897 13.3889 3.62929 13.3123 3.23161C13.2358 2.83394 13.0723 2.45808 12.8337 2.13089C12.595 1.80371 12.287 1.53328 11.9317 1.33892C11.5764 1.14456 11.1826 1.03107 10.7784 1.00656C10.3741 0.982055 9.96946 1.04713 9.59328 1.19715C9.53195 1.22366 9.46592 1.23761 9.39911 1.23818C9.33229 1.23874 9.26604 1.22591 9.20427 1.20043C9.14249 1.17496 9.08645 1.13736 9.03946 1.08987C8.99246 1.04237 8.95546 0.98593 8.93064 0.92389C8.90583 0.86185 8.8937 0.795465 8.89497 0.728658C8.89625 0.661851 8.9109 0.595977 8.93806 0.534929C8.96523 0.473881 9.00435 0.418896 9.05313 0.373224C9.1019 0.327553 9.15933 0.292121 9.22203 0.269022C10.0829 -0.0743216 11.0405 -0.0866771 11.91 0.234338C12.7795 0.555354 13.4993 1.18699 13.9305 2.00741C14.3618 2.82782 14.4739 3.77887 14.2453 4.67709C14.0168 5.57532 13.4636 6.35706 12.6927 6.87152C13.9049 7.31829 14.9401 8.14504 15.6439 9.2284C15.7163 9.33946 15.7417 9.47474 15.7144 9.60449C15.6871 9.73424 15.6093 9.84782 15.4983 9.92027Z" fill="#525252"/>
</svg>
