<svg width="26" height="26" viewBox="0 0 26 26" fill="none" xmlns="http://www.w3.org/2000/svg">
<path d="M0 12.5869C0 5.63506 5.63506 0 12.5869 0C19.5388 0 25.1738 5.63506 25.1738 12.5869C25.1738 19.5388 19.5388 25.1738 12.5869 25.1738C5.63506 25.1738 0 19.5388 0 12.5869ZM14.5234 7.42305C14.5234 7.24443 14.4741 7.06926 14.3808 6.91694C14.2875 6.76461 14.1539 6.64106 13.9948 6.55995C13.8356 6.47884 13.6572 6.44333 13.4791 6.45736C13.301 6.47139 13.1303 6.53441 12.9858 6.63944L9.43567 9.22137C9.22784 9.37236 9.0885 9.59973 9.04832 9.85345C9.00813 10.1072 9.07037 10.3665 9.22137 10.5743C9.37236 10.7821 9.59973 10.9215 9.85345 10.9616C10.1072 11.0018 10.3665 10.9396 10.5743 10.7886L12.5882 9.32464V17.7508C12.5882 18.0076 12.6902 18.2538 12.8718 18.4354C13.0534 18.617 13.2996 18.719 13.5564 18.719C13.8132 18.719 14.0595 18.617 14.2411 18.4354C14.4226 18.2538 14.5247 18.0076 14.5247 17.7508L14.5234 7.42305Z" fill="#0A0836"/>
</svg>
