<svg width="25" height="25" viewBox="0 0 25 25" fill="none" xmlns="http://www.w3.org/2000/svg">
<path d="M12.5 0.75C15.6163 0.75 18.605 1.98785 20.8086 4.19141C23.0121 6.39496 24.25 9.38371 24.25 12.5C24.25 14.0429 23.9459 15.5706 23.3555 16.9961C22.765 18.4217 21.8997 19.7175 20.8086 20.8086C19.7175 21.8997 18.4217 22.765 16.9961 23.3555C15.5706 23.9459 14.0429 24.25 12.5 24.25C10.9571 24.25 9.42939 23.9459 8.00391 23.3555C6.57833 22.765 5.28249 21.8997 4.19141 20.8086C3.10032 19.7175 2.23502 18.4217 1.64453 16.9961C1.05413 15.5706 0.75 14.0429 0.75 12.5C0.75 9.38371 1.98785 6.39496 4.19141 4.19141C6.39496 1.98785 9.38371 0.75 12.5 0.75Z" stroke="#130E67" stroke-width="1.5" stroke-linecap="round" stroke-linejoin="round"/>
</svg>
