<svg width="25" height="25" viewBox="0 0 25 25" fill="none" xmlns="http://www.w3.org/2000/svg">
<path d="M0 12.3992C0 5.55104 5.55104 0 12.3992 0C19.2474 0 24.7985 5.55104 24.7985 12.3992C24.7985 19.2474 19.2474 24.7985 12.3992 24.7985C5.55104 24.7985 0 19.2474 0 12.3992ZM10.1737 10.2844C10.1737 9.54804 10.437 9.06861 10.7752 8.76467C11.1301 8.44547 11.6273 8.26615 12.1551 8.26615C12.6828 8.26615 13.1801 8.44419 13.5349 8.76467C13.8719 9.06861 14.1351 9.54804 14.1351 10.2844C14.1351 11.3806 13.4179 12.5366 12.2403 13.7231C11.3602 14.6107 10.353 15.3928 9.44885 16.0936C9.16059 16.3174 8.88506 16.5336 8.62223 16.7421C8.46811 16.8658 8.35619 17.0343 8.30195 17.2243C8.24771 17.4143 8.25381 17.6164 8.31943 17.8028C8.38505 17.9892 8.50694 18.1506 8.66825 18.2647C8.82957 18.3789 9.02234 18.4401 9.21994 18.4399H15.5785C15.8315 18.4399 16.0741 18.3394 16.253 18.1605C16.4318 17.9817 16.5323 17.7391 16.5323 17.4861C16.5323 17.2331 16.4318 16.9905 16.253 16.8117C16.0741 16.6328 15.8315 16.5323 15.5785 16.5323H11.9668C12.5175 16.0783 13.0809 15.5849 13.5946 15.066C14.8435 13.807 16.0427 12.178 16.0427 10.2844C16.0427 9.03809 15.5722 8.03343 14.8104 7.3467C14.0639 6.67524 13.0949 6.35858 12.1551 6.35858C11.2153 6.35858 10.2449 6.67524 9.49845 7.3467C8.73542 8.03343 8.26615 9.03809 8.26615 10.2844C8.26615 10.5373 8.36664 10.7799 8.54551 10.9588C8.72438 11.1377 8.96698 11.2382 9.21994 11.2382C9.4729 11.2382 9.7155 11.1377 9.89437 10.9588C10.0732 10.7799 10.1737 10.5373 10.1737 10.2844Z" fill="#0A0836"/>
</svg>
