<svg width="25" height="25" viewBox="0 0 25 25" fill="none" xmlns="http://www.w3.org/2000/svg">
<path d="M0 12.3214C0 5.51619 5.51619 0 12.3214 0C19.1266 0 24.6428 5.51619 24.6428 12.3214C24.6428 19.1266 19.1266 24.6428 12.3214 24.6428C5.51619 24.6428 0 19.1266 0 12.3214ZM16.4285 9.78634C16.4285 8.60475 15.856 7.70118 15.0422 7.12365C14.2562 6.56635 13.2629 6.31866 12.3214 6.31866C11.3799 6.31866 10.3866 6.56635 9.60057 7.12365C8.78799 7.69992 8.21425 8.60475 8.21425 9.78634C8.21425 10.0377 8.31411 10.2788 8.49186 10.4565C8.66961 10.6343 8.91068 10.7341 9.16205 10.7341C9.41342 10.7341 9.6545 10.6343 9.83225 10.4565C10.01 10.2788 10.1099 10.0377 10.1099 9.78634C10.1099 9.28843 10.3272 8.93332 10.6975 8.6692C11.0968 8.38612 11.6832 8.21425 12.3214 8.21425C12.9596 8.21425 13.5459 8.38612 13.9453 8.6692C14.3143 8.93079 14.5304 9.28337 14.5329 9.77749L14.5304 9.81161C14.5266 9.84952 14.5203 9.91271 14.5038 9.9898C14.4625 10.1886 14.3873 10.3789 14.2814 10.5522C14.0716 10.8896 13.5965 11.3736 12.3214 11.3736C12.07 11.3736 11.8289 11.4734 11.6512 11.6512C11.4734 11.8289 11.3736 12.07 11.3736 12.3214C11.3736 12.5728 11.4734 12.8138 11.6512 12.9916C11.8289 13.1693 12.07 13.2692 12.3214 13.2692C13.5977 13.2692 14.0716 13.7532 14.2814 14.0906C14.4244 14.3258 14.5105 14.591 14.5329 14.8653C14.5304 15.3581 14.3143 15.712 13.9453 15.9736C13.5459 16.2566 12.9596 16.4285 12.3214 16.4285C11.6832 16.4285 11.0968 16.2566 10.6975 15.9736C10.3272 15.7094 10.1099 15.3543 10.1099 14.8564C10.1099 14.6051 10.01 14.364 9.83225 14.1862C9.6545 14.0085 9.41342 13.9086 9.16205 13.9086C8.91068 13.9086 8.66961 14.0085 8.49186 14.1862C8.31411 14.364 8.21425 14.6051 8.21425 14.8564C8.21425 16.038 8.78799 16.9416 9.60057 17.5191C10.3866 18.0764 11.3799 18.3241 12.3214 18.3241C13.2629 18.3241 14.2562 18.0764 15.0422 17.5191C15.8548 16.9428 16.4285 16.038 16.4285 14.8564V14.8539C16.4028 14.2287 16.2175 13.6205 15.8902 13.0872C15.7114 12.801 15.4913 12.5429 15.2368 12.3214C15.5035 12.0889 15.7196 11.8285 15.8902 11.5556C16.2175 11.0223 16.4028 10.4141 16.4285 9.78886V9.78634Z" fill="#0A0836"/>
</svg>
